<svg width="24" height="24" viewBox="0 0 24 24" fill="none" xmlns="http://www.w3.org/2000/svg">
<path d="M23.2856 20.6456C22.5355 19.9769 21.8789 19.2104 21.3333 18.3667C20.7377 17.202 20.3807 15.9301 20.2833 14.6256V10.7833C20.2885 8.73436 19.5452 6.75403 18.1932 5.21442C16.8412 3.67481 14.9736 2.68189 12.9411 2.42222V1.41889C12.9411 1.1435 12.8317 0.8794 12.637 0.684675C12.4423 0.48995 12.1782 0.380554 11.9028 0.380554C11.6274 0.380554 11.3633 0.48995 11.1686 0.684675C10.9738 0.8794 10.8644 1.1435 10.8644 1.41889V2.43778C8.8502 2.71616 7.00509 3.71509 5.67086 5.24953C4.33662 6.78397 3.60368 8.74994 3.60778 10.7833V14.6256C3.51037 15.9301 3.15338 17.202 2.55778 18.3667C2.0218 19.2085 1.37571 19.9749 0.636667 20.6456C0.553703 20.7184 0.487211 20.8082 0.441614 20.9087C0.396018 21.0093 0.372363 21.1185 0.372223 21.2289V22.2867C0.372223 22.4929 0.454167 22.6908 0.600029 22.8366C0.74589 22.9825 0.943721 23.0644 1.15 23.0644H22.7722C22.9785 23.0644 23.1763 22.9825 23.3222 22.8366C23.4681 22.6908 23.55 22.4929 23.55 22.2867V21.2289C23.5499 21.1185 23.5262 21.0093 23.4806 20.9087C23.435 20.8082 23.3685 20.7184 23.2856 20.6456ZM1.99 21.5089C2.71365 20.8098 3.3508 20.0264 3.88778 19.1756C4.63803 17.7689 5.07578 16.2169 5.17111 14.6256V10.7833C5.14027 9.8718 5.29316 8.96339 5.6207 8.11218C5.94824 7.26098 6.44372 6.48439 7.07764 5.82866C7.71155 5.17292 8.47094 4.65146 9.31059 4.29532C10.1502 3.93918 11.053 3.75565 11.965 3.75565C12.877 3.75565 13.7798 3.93918 14.6194 4.29532C15.4591 4.65146 16.2184 5.17292 16.8524 5.82866C17.4863 6.48439 17.9818 7.26098 18.3093 8.11218C18.6368 8.96339 18.7897 9.8718 18.7589 10.7833V14.6256C18.8542 16.2169 19.292 17.7689 20.0422 19.1756C20.5792 20.0264 21.2163 20.8098 21.94 21.5089H1.99Z" fill="#8AD08A"/>
</svg>
