<svg width="18" height="26" viewBox="0 0 18 26" fill="none" xmlns="http://www.w3.org/2000/svg">
<path d="M16.0087 11.4303L9.79406 0.544405C9.70389 0.405196 9.58478 0.29171 9.44666 0.213405C9.30853 0.135101 9.15539 0.0942459 9 0.0942459C8.84461 0.0942459 8.69147 0.135101 8.55334 0.213405C8.41522 0.29171 8.29611 0.405196 8.20594 0.544405L1.96313 11.4818C1.09583 13.0207 0.612718 14.784 0.5625 16.5937C0.5625 19.0553 1.45145 21.416 3.03379 23.1566C4.61612 24.8972 6.76224 25.875 9 25.875C11.2378 25.875 13.3839 24.8972 14.9662 23.1566C16.5486 21.416 17.4375 19.0553 17.4375 16.5937C17.3836 14.7641 16.8907 12.9827 16.0087 11.4303ZM9 23.8125C7.2602 23.81 5.5923 23.0487 4.36208 21.6955C3.13185 20.3422 2.43973 18.5075 2.4375 16.5937C2.48733 15.1516 2.88113 13.7493 3.57938 12.5275L4.45594 10.991L13.9003 21.3798C13.2869 22.1442 12.5328 22.7565 11.688 23.1761C10.8432 23.5957 9.92694 23.813 9 23.8135V23.8125Z" fill="black"/>
</svg>
