<?xml version="1.0" standalone="no"?>
<!DOCTYPE svg PUBLIC "-//W3C//DTD SVG 20010904//EN"
 "http://www.w3.org/TR/2001/REC-SVG-20010904/DTD/svg10.dtd">
<svg version="1.0" xmlns="http://www.w3.org/2000/svg"
 width="500.000000pt" height="500.000000pt" viewBox="0 0 500.000000 500.000000"
 preserveAspectRatio="xMidYMid meet">

<g transform="translate(0.000000,500.000000) scale(0.100000,-0.100000)"
fill="#000000" stroke="none">
<path d="M1835 3227 c-347 -244 -630 -450 -630 -458 0 -11 35 -14 193 -17
l192 -2 0 -259 0 -258 -131 -6 c-72 -3 -132 -7 -134 -9 -6 -6 26 -192 46 -270
25 -100 83 -236 132 -310 21 -31 68 -85 105 -120 127 -119 279 -176 499 -185
147 -7 138 -16 138 142 0 99 -3 116 -27 168 -38 81 -79 130 -153 182 -65 47
-202 115 -229 115 -30 0 -16 -26 33 -63 137 -105 239 -251 249 -358 l5 -49
-49 0 c-210 1 -402 122 -501 315 -40 78 -84 203 -98 278 l-7 37 84 0 c266 0
465 -65 608 -197 130 -120 191 -256 235 -525 l6 -38 67 0 68 0 13 88 c26 184
103 354 208 458 133 133 303 198 554 211 70 3 134 3 142 0 14 -5 13 -17 -9
-99 -61 -230 -181 -398 -336 -471 -61 -29 -186 -57 -254 -57 l-47 0 7 47 c11
84 71 189 156 273 42 41 92 86 113 100 20 14 35 30 33 35 -12 36 -196 -50
-290 -136 -124 -114 -169 -268 -129 -438 l6 -24 126 6 c203 9 343 56 468 157
152 123 253 329 299 614 9 58 15 108 12 111 -2 3 -59 8 -126 12 l-122 6 0 258
0 259 217 2 c158 2 217 6 220 15 3 7 -103 83 -241 175 l-245 163 -1 175 0 175
-198 107 -197 107 -3 -145 c-1 -79 -5 -144 -8 -144 -3 0 -99 65 -214 145 -115
80 -213 145 -217 145 -5 0 -292 -200 -638 -443z m926 79 l284 -195 3 160 c1
87 6 159 10 159 5 0 34 -14 65 -31 l57 -31 0 -171 0 -172 105 -65 c58 -36 105
-68 105 -72 0 -5 -40 -8 -90 -8 l-90 0 0 -328 0 -329 -79 -12 c-283 -43 -499
-195 -622 -436 l-43 -85 -39 77 c-125 248 -336 401 -618 445 l-79 12 0 328 0
328 -50 0 c-27 0 -50 3 -49 8 0 7 829 612 839 612 4 0 134 -88 291 -194z"/>
<path d="M2230 2800 l0 -100 100 0 100 0 0 100 0 100 -100 0 -100 0 0 -100z"/>
<path d="M2510 2800 l0 -100 100 0 100 0 0 100 0 100 -100 0 -100 0 0 -100z"/>
<path d="M2230 2510 l0 -100 100 0 100 0 0 100 0 100 -100 0 -100 0 0 -100z"/>
<path d="M2510 2510 l0 -100 100 0 100 0 0 100 0 100 -100 0 -100 0 0 -100z"/>
</g>
</svg>
