<svg width="14" height="20" viewBox="0 0 14 20" fill="none" xmlns="http://www.w3.org/2000/svg">
<path d="M7 0C3.13 0 0 3.0206 0 6.75532C0 11.8218 7 19.3009 7 19.3009C7 19.3009 14 11.8218 14 6.75532C14 3.0206 10.87 0 7 0ZM7 9.16794C6.33696 9.16794 5.70107 8.91376 5.23223 8.4613C4.76339 8.00885 4.5 7.39519 4.5 6.75532C4.5 6.11546 4.76339 5.5018 5.23223 5.04935C5.70107 4.59689 6.33696 4.34271 7 4.34271C7.66304 4.34271 8.29893 4.59689 8.76777 5.04935C9.23661 5.5018 9.5 6.11546 9.5 6.75532C9.5 7.39519 9.23661 8.00885 8.76777 8.4613C8.29893 8.91376 7.66304 9.16794 7 9.16794Z" fill="black"/>
</svg>
