<svg width="80" height="80" viewBox="0 0 80 80" fill="none" xmlns="http://www.w3.org/2000/svg">
<path d="M11 40C10.2222 40 9.69445 39.6389 9.41667 38.9167C9.13889 38.1944 9.30556 37.5833 9.91667 37.0833L37.75 12C38.3611 11.3889 39.1111 11.0833 40 11.0833C40.8889 11.0833 41.6389 11.3889 42.25 12L53.3333 22V16.6667C53.3333 15.7222 53.6533 14.93 54.2933 14.29C54.9311 13.6522 55.7222 13.3333 56.6667 13.3333H60C60.9444 13.3333 61.7356 13.6522 62.3733 14.29C63.0133 14.93 63.3333 15.7222 63.3333 16.6667V31L70.0833 37.0833C70.6944 37.5833 70.8611 38.1944 70.5833 38.9167C70.3056 39.6389 69.7778 40 69 40H64.5833C64.1389 40 63.7367 39.9311 63.3767 39.7933C63.0144 39.6533 62.6944 39.4444 62.4167 39.1667L40 19L17.5833 39.1667C17.3056 39.4444 16.9867 39.6533 16.6267 39.7933C16.2644 39.9311 15.8611 40 15.4167 40H11ZM33.3333 66.6667C32.3889 66.6667 31.5978 66.3467 30.96 65.7067C30.32 65.0689 30 64.2778 30 63.3333V50C30 49.0556 30.32 48.2633 30.96 47.6233C31.5978 46.9855 32.3889 46.6667 33.3333 46.6667H46.6667C47.6111 46.6667 48.4033 46.9855 49.0433 47.6233C49.6811 48.2633 50 49.0556 50 50V63.3333C50 64.2778 49.6811 65.0689 49.0433 65.7067C48.4033 66.3467 47.6111 66.6667 46.6667 66.6667H33.3333ZM36.6667 60H43.3333V53.3333H36.6667V60Z" fill="black"/>
</svg>
