<svg width="30" height="28" viewBox="0 0 30 28" fill="none" xmlns="http://www.w3.org/2000/svg">
<path d="M25 10C23.9693 10.0275 22.9697 9.64544 22.22 8.93755C21.4703 8.22967 21.0316 7.25359 21 6.223C21.0186 5.48718 21.245 4.77164 21.653 4.159L24.17 0.413999C24.2667 0.285236 24.392 0.180737 24.5361 0.108768C24.6801 0.0367987 24.839 -0.000667572 25 -0.000667572C25.161 -0.000667572 25.3198 0.0367987 25.4639 0.108768C25.608 0.180737 25.7333 0.285236 25.83 0.413999L28.315 4.11C28.7397 4.73481 28.9774 5.46783 29 6.223C28.9683 7.25359 28.5297 8.22967 27.78 8.93755C27.0303 9.64544 26.0307 10.0275 25 10ZM25 2.763L23.344 5.226C23.137 5.51896 23.0177 5.86476 23 6.223C23.058 6.71267 23.2937 7.16403 23.6623 7.49154C24.0309 7.81905 24.5069 7.99994 25 7.99994C25.4931 7.99994 25.969 7.81905 26.3377 7.49154C26.7063 7.16403 26.942 6.71267 27 6.223C26.9776 5.84534 26.8475 5.48201 26.625 5.176L25 2.763ZM22.5 28H7.49999C5.88905 28.0017 4.33493 27.4048 3.13934 26.3251C1.94374 25.2454 1.19198 23.76 1.02998 22.1572C0.867985 20.5545 1.30731 18.9487 2.26268 17.6516C3.21804 16.3545 4.62128 15.4587 6.19999 15.138C6.6261 13.1198 7.73298 11.3094 9.33512 10.0102C10.9373 8.71098 12.9373 8.00196 15 8.00196C17.0627 8.00196 19.0627 8.71098 20.6649 10.0102C22.267 11.3094 23.3739 13.1198 23.8 15.138C25.3787 15.4587 26.7819 16.3545 27.7373 17.6516C28.6927 18.9487 29.132 20.5545 28.97 22.1572C28.808 23.76 28.0562 25.2454 26.8606 26.3251C25.6651 27.4048 24.1109 28.0017 22.5 28ZM15 10C13.2927 10.0016 11.6448 10.6271 10.3665 11.7589C9.08817 12.8906 8.26753 14.4505 8.05899 16.145L7.95899 16.957L7.14399 17.021C5.98324 17.1094 4.90202 17.6445 4.1278 18.5139C3.35359 19.3832 2.94674 20.5189 2.99286 21.6821C3.03898 22.8453 3.53447 23.9453 4.37508 24.7506C5.21569 25.5559 6.33589 26.0038 7.49999 26H22.5C23.6641 26.0038 24.7843 25.5559 25.6249 24.7506C26.4655 23.9453 26.961 22.8453 27.0071 21.6821C27.0532 20.5189 26.6464 19.3832 25.8722 18.5139C25.098 17.6445 24.0167 17.1094 22.856 17.021L22.041 16.957L21.942 16.145C21.733 14.4505 20.9121 12.8907 19.6337 11.759C18.3552 10.6274 16.7074 10.0018 15 10Z" fill="#004E7A"/>
</svg>
