<svg width="32" height="32" viewBox="0 0 32 32" fill="none" xmlns="http://www.w3.org/2000/svg">
<path d="M30 18H24C23.4697 17.9995 22.9613 17.7886 22.5864 17.4136C22.2114 17.0387 22.0005 16.5303 22 16V6C22.0005 5.46973 22.2114 4.96133 22.5864 4.58637C22.9613 4.21141 23.4697 4.00053 24 4H30V6H24V16H30V18Z" fill="black"/>
<path d="M18 6C19.1046 6 20 5.10457 20 4C20 2.89543 19.1046 2 18 2C16.8954 2 16 2.89543 16 4C16 5.10457 16.8954 6 18 6Z" fill="black"/>
<path d="M10 20.184V12H8.00001V20.184C7.33279 20.4199 6.77045 20.8841 6.41237 21.4945C6.0543 22.1049 5.92354 22.8222 6.04321 23.5197C6.16288 24.2172 6.52528 24.85 7.06635 25.3061C7.60741 25.7622 8.29232 26.0124 9.00001 26.0124C9.70769 26.0124 10.3926 25.7622 10.9337 25.3061C11.4747 24.85 11.8371 24.2172 11.9568 23.5197C12.0765 22.8222 11.9457 22.1049 11.5876 21.4945C11.2296 20.8841 10.6672 20.4199 10 20.184Z" fill="black"/>
<path d="M8.99998 30C7.62196 30.0016 6.27419 29.5959 5.12592 28.8341C3.97766 28.0722 3.08008 26.9881 2.5459 25.7178C2.01172 24.4475 1.86475 23.0477 2.12345 21.6942C2.38215 20.3407 3.03499 19.0937 3.99998 18.11V7C3.99998 5.67392 4.52677 4.40215 5.46445 3.46447C6.40213 2.52678 7.6739 2 8.99998 2C10.3261 2 11.5978 2.52678 12.5355 3.46447C13.4732 4.40215 14 5.67392 14 7V18.11C14.965 19.0937 15.6178 20.3407 15.8765 21.6942C16.1352 23.0477 15.9883 24.4475 15.4541 25.7178C14.9199 26.9881 14.0223 28.0722 12.874 28.8341C11.7258 29.5959 10.378 30.0016 8.99998 30ZM8.99998 4C8.20458 4.00079 7.44198 4.31712 6.87954 4.87956C6.3171 5.44199 6.00078 6.20459 5.99998 7V18.983L5.66799 19.282C4.91286 19.9569 4.3805 20.8452 4.14137 21.8294C3.90223 22.8135 3.96759 23.8471 4.3288 24.7932C4.69002 25.7394 5.33005 26.5536 6.16418 27.128C6.99831 27.7024 7.98721 28.01 8.99998 28.01C10.0128 28.01 11.0017 27.7024 11.8358 27.128C12.6699 26.5536 13.31 25.7394 13.6712 24.7932C14.0324 23.8471 14.0977 22.8135 13.8586 21.8294C13.6195 20.8452 13.0871 19.9569 12.332 19.282L12 18.983V7C11.9992 6.20459 11.6829 5.44199 11.1204 4.87956C10.558 4.31712 9.79539 4.00079 8.99998 4Z" fill="black"/>
</svg>
