<svg width="60" height="60" viewBox="0 0 60 60" fill="none" xmlns="http://www.w3.org/2000/svg">
<g clip-path="url(#clip0_119_57)">
<path d="M31.9583 0.714844C30.7917 -0.234375 29.2083 -0.234375 28.0417 0.714844L9.70833 15.7148C8.54167 16.6758 8.05208 18.3633 8.5 19.9102C8.94792 21.457 10.2188 22.5 11.6667 22.5H13.3333V31.0547C13.5104 31.1719 13.6771 31.2891 13.8437 31.418C15.7187 32.8711 18.0208 33.7969 20.0104 33.7969C22.2083 33.7969 24.3854 32.8008 26.1771 31.418C28.4792 29.6016 31.5521 29.6016 33.8542 31.418C35.7708 32.9063 37.9792 33.7969 40.0208 33.7969C42 33.7969 44.3125 32.8711 46.1875 31.418C46.3438 31.3008 46.5 31.1836 46.6563 31.0781L46.625 22.5H48.3333C49.7813 22.5 51.0521 21.457 51.5 19.9102C51.9479 18.3633 51.4583 16.6758 50.2917 15.7148L31.9583 0.714844V0.714844ZM28.0729 36.3164C25.7292 38.1328 22.8646 39.375 20 39.375C17.1979 39.375 14.2396 38.1094 11.9375 36.3164C10.6979 35.3203 9.01042 35.4023 7.85417 36.5156C6.35417 37.9102 4.46875 38.9766 2.58333 39.4687C0.791666 39.9375 -0.322917 41.9531 0.0937495 43.9688C0.510416 45.9844 2.30208 47.2383 4.09375 46.7695C6.64583 46.1016 8.77083 44.8359 10.1563 43.8398C13.1771 45.668 16.5625 46.875 20 46.875C23.3229 46.875 26.3125 45.7148 28.375 44.6602C28.9792 44.3438 29.5313 44.0391 30 43.7578C30.4688 44.0391 31.0104 44.3555 31.625 44.6602C33.6875 45.7148 36.6875 46.875 40 46.875C43.4375 46.875 46.8229 45.668 49.8438 43.8516C51.2396 44.8359 53.3542 46.1133 55.9063 46.7813C57.6979 47.25 59.4896 45.9961 59.9062 43.9805C60.3229 41.9648 59.2083 39.9492 57.4167 39.4805C55.5313 38.9883 53.6458 37.9219 52.1458 36.5273C50.9896 35.4141 49.3021 35.3438 48.0625 36.3281C45.7708 38.1094 42.8021 39.375 40 39.375C37.1354 39.375 34.2708 38.1328 31.9271 36.3164C30.7708 35.3906 29.2292 35.3906 28.0729 36.3164V36.3164ZM40 52.5C37.1354 52.5 34.2708 51.2578 31.9271 49.4414C30.7708 48.5156 29.2292 48.5156 28.0729 49.4414C25.7292 51.2578 22.8646 52.5 20 52.5C17.1979 52.5 14.2396 51.2344 11.9375 49.4414C10.6979 48.4453 9.01042 48.5273 7.85417 49.6406C6.35417 51.0352 4.46875 52.1016 2.58333 52.5937C0.791666 53.0625 -0.322917 55.0781 0.0937495 57.0938C0.510416 59.1094 2.30208 60.3633 4.09375 59.8945C6.64583 59.2266 8.77083 57.9609 10.1563 56.9648C13.1771 58.793 16.5625 60 20 60C23.3229 60 26.3125 58.8398 28.375 57.7852C28.9792 57.4688 29.5313 57.1641 30 56.8828C30.4688 57.1641 31.0104 57.4805 31.625 57.7852C33.6875 58.8398 36.6875 60 40 60C43.4375 60 46.8229 58.793 49.8438 56.9766C51.2396 57.9609 53.3542 59.2383 55.9063 59.9063C57.6979 60.375 59.4896 59.1211 59.9062 57.1055C60.3229 55.0898 59.2083 53.0742 57.4167 52.6055C55.5313 52.1133 53.6458 51.0469 52.1458 49.6523C50.9896 48.5508 49.3021 48.4688 48.0625 49.4531C45.7708 51.2344 42.8021 52.5 40 52.5V52.5Z" fill="black"/>
</g>
<defs>
<clipPath id="clip0_119_57">
<rect width="60" height="60" fill="white"/>
</clipPath>
</defs>
</svg>
