<svg width="30" height="22" viewBox="0 0 30 22" fill="none" xmlns="http://www.w3.org/2000/svg">
<path d="M16.4138 6.33204C20.9025 6.33204 23.449 9.04067 23.8187 12.3125H23.9321C26.8207 12.3125 29.1624 14.4424 29.1624 17.069C29.1624 19.6963 26.8207 21.8256 23.9321 21.8256H8.89415C6.00628 21.8256 3.66453 19.6963 3.66453 17.069C3.66453 14.4424 6.00628 12.3125 8.89486 12.3125H9.00819C9.38078 9.01935 11.9244 6.33204 16.4138 6.33204ZM3.36136 11.6234C3.51533 11.8666 3.56443 12.1535 3.49909 12.428C3.43374 12.7025 3.25864 12.9449 3.0079 13.1081L2.90732 13.1669L1.98719 13.6513C1.7114 13.7969 1.38466 13.8402 1.07483 13.772C0.765007 13.7037 0.495906 13.5293 0.32342 13.2849C0.150934 13.0406 0.08832 12.745 0.148582 12.4596C0.208844 12.1743 0.38735 11.921 0.647027 11.7525L0.74761 11.6937L1.66844 11.2094C1.95308 11.0596 2.2913 11.019 2.60875 11.0965C2.92621 11.174 3.19692 11.3633 3.36136 11.6227V11.6234ZM13.3744 5.4621C10.682 6.25002 8.76382 8.10356 7.97686 10.5777L7.91028 10.7973L7.82811 11.1047L7.53628 11.1545C6.68807 11.3172 5.88355 11.6313 5.16903 12.0787C4.51731 11.061 4.27297 9.86873 4.47768 8.70517C4.68239 7.54161 5.32348 6.47883 6.2916 5.69809C7.25972 4.91735 8.49491 4.467 9.78652 4.42384C11.0781 4.38069 12.3462 4.74741 13.3744 5.46146V5.4621ZM1.89936 5.0281L1.99286 5.06362L2.95619 5.47308C3.24792 5.5954 3.47621 5.81616 3.59299 6.08887C3.70977 6.36159 3.70593 6.66498 3.58228 6.93517C3.45862 7.20535 3.2248 7.42125 2.93005 7.53739C2.6353 7.65353 2.30263 7.66086 2.00207 7.55783L1.90857 7.52167L0.945235 7.11221C0.655743 6.98863 0.4298 6.76786 0.314584 6.49601C0.199368 6.22415 0.203787 5.92223 0.326917 5.65327C0.450048 5.38432 0.682371 5.16913 0.975377 5.05263C1.26838 4.93614 1.59942 4.92735 1.89936 5.0281ZM15.4356 1.30681C15.6905 1.46946 15.869 1.71356 15.9357 1.99066C16.0024 2.26775 15.9523 2.55757 15.7954 2.80256L15.7402 2.88071L15.131 3.67444C14.9482 3.91492 14.6701 4.08137 14.3554 4.13875C14.0407 4.19613 13.7138 4.13998 13.4436 3.9821C13.1733 3.82422 12.9808 3.57694 12.9065 3.29226C12.8321 3.00759 12.8818 2.70772 13.045 2.45575L13.1002 2.37825L13.7094 1.58387C13.8028 1.46222 13.9215 1.35853 14.0588 1.27872C14.1962 1.19892 14.3494 1.14457 14.5098 1.11878C14.6701 1.09299 14.8345 1.09627 14.9935 1.12842C15.1525 1.16057 15.3029 1.22097 15.4363 1.30617L15.4356 1.30681ZM8.14615 1.03556L8.19219 1.13631L8.55557 2.04694C8.66555 2.31998 8.65584 2.62117 8.52845 2.88785C8.40107 3.15453 8.16582 3.36616 7.87165 3.47872C7.57749 3.59128 7.24705 3.59609 6.94908 3.49217C6.65112 3.38824 6.40857 3.18358 6.2719 2.92075L6.22586 2.82L5.86249 1.90937C5.75347 1.6365 5.76384 1.33585 5.89145 1.06976C6.01905 0.803676 6.25409 0.592587 6.54783 0.480278C6.84156 0.367969 7.17143 0.36306 7.46902 0.466569C7.76662 0.570079 8.00909 0.774062 8.14615 1.03621V1.03556Z" fill="black"/>
</svg>
