<svg width="23" height="22" viewBox="0 0 23 22" fill="none" xmlns="http://www.w3.org/2000/svg">
<path d="M7.11251 16.85C7.73909 16.85 8.34 17.0897 8.78305 17.5163C9.22611 17.943 9.47501 18.5216 9.47501 19.125C9.47501 19.7284 9.22611 20.307 8.78305 20.7337C8.34 21.1603 7.73909 21.4 7.11251 21.4C6.48594 21.4 5.88503 21.1603 5.44197 20.7337C4.99892 20.307 4.75001 19.7284 4.75001 19.125C4.75001 18.5216 4.99892 17.943 5.44197 17.5163C5.88503 17.0897 6.48594 16.85 7.11251 16.85ZM7.11251 18.8C7.023 18.8 6.93716 18.8342 6.87386 18.8952C6.81057 18.9561 6.77501 19.0388 6.77501 19.125C6.77501 19.2112 6.81057 19.2939 6.87386 19.3548C6.93716 19.4158 7.023 19.45 7.11251 19.45C7.20202 19.45 7.28787 19.4158 7.35116 19.3548C7.41445 19.2939 7.45001 19.2112 7.45001 19.125C7.45001 19.0388 7.41445 18.9561 7.35116 18.8952C7.28787 18.8342 7.20202 18.8 7.11251 18.8ZM18.9223 8.4C19.8174 8.4 20.6759 8.74241 21.3088 9.3519C21.9417 9.96139 22.2973 10.788 22.2973 11.65C22.2973 12.512 21.9417 13.3386 21.3088 13.9481C20.6759 14.5576 19.8174 14.9 18.9223 14.9L18.8521 14.8974L18.6982 14.9091L17.6965 14.9078C17.8477 15.2601 17.9314 15.6462 17.9314 16.0518C17.9365 16.4588 17.857 16.8626 17.6977 17.2397C17.5385 17.6167 17.3025 17.9592 17.0039 18.2472C16.7052 18.5352 16.3497 18.7628 15.9584 18.9167C15.5671 19.0705 15.1478 19.1476 14.7252 19.1432C13.3711 19.1432 12.3762 18.566 11.8497 17.6144C11.7294 17.3961 11.6996 17.1421 11.7664 16.9035C11.8333 16.6649 11.9916 16.4597 12.2095 16.3293C12.4275 16.1988 12.6887 16.1529 12.9404 16.2009C13.1921 16.2488 13.4155 16.3869 13.5655 16.5874L13.7005 16.7993C13.8841 17.0515 14.1865 17.1932 14.7265 17.1932C14.8831 17.1975 15.039 17.1709 15.1846 17.1151C15.3301 17.0592 15.4623 16.9752 15.5728 16.8682C15.6834 16.7613 15.77 16.6337 15.8274 16.4933C15.8847 16.3528 15.9116 16.2026 15.9064 16.0518C15.9064 15.4798 15.4177 14.9923 14.767 14.926L14.4768 14.9091H1.71251C1.45598 14.909 1.20904 14.8152 1.02159 14.6465C0.834145 14.4779 0.720162 14.247 0.702677 14.0006C0.685192 13.7541 0.765508 13.5104 0.927396 13.3188C1.08928 13.1272 1.32067 13.0019 1.57481 12.9682L1.71251 12.9591H18.6982L18.763 12.9617L18.8427 12.9526L19.0803 12.9409C19.3116 12.9142 19.5318 12.8303 19.7195 12.6973C19.9072 12.5643 20.056 12.3868 20.1513 12.1821C20.2467 11.9774 20.2853 11.7524 20.2636 11.529C20.2419 11.3056 20.1605 11.0914 20.0274 10.9073C19.8942 10.7231 19.7138 10.5753 19.5038 10.4782C19.2937 10.3811 19.0612 10.338 18.8287 10.3531C18.5962 10.3682 18.3718 10.441 18.1771 10.5643C17.9825 10.6877 17.8244 10.8575 17.7181 11.0572L17.5966 11.3263C17.477 11.5451 17.2755 11.7119 17.0329 11.793C16.7903 11.8741 16.5248 11.8635 16.2901 11.7632C16.0554 11.6629 15.869 11.4805 15.7687 11.2529C15.6684 11.0252 15.6617 10.7694 15.7498 10.5372C15.9873 9.91074 16.419 9.36972 16.9865 8.98743C17.554 8.60515 18.2298 8.40007 18.9223 8.4ZM10.8223 1.8935C12.0267 1.89042 13.1868 2.33035 14.0657 3.12339C14.9445 3.91642 15.4757 5.00269 15.5507 6.16023C15.6257 7.31776 15.2388 8.45918 14.4691 9.35123C13.6994 10.2433 12.605 10.8186 11.4096 10.9597L11.2746 10.9857L11.1355 10.9935H1.71251C1.45598 10.9934 1.20904 10.8996 1.02159 10.7309C0.834145 10.5623 0.720162 10.3314 0.702677 10.085C0.685192 9.8385 0.765508 9.59484 0.927396 9.40321C1.08928 9.21158 1.32067 9.08627 1.57481 9.0526L1.71251 9.0435H10.8237C11.3577 9.0435 11.8797 8.89101 12.3237 8.60532C12.7677 8.31963 13.1138 7.91356 13.3181 7.43848C13.5225 6.96339 13.576 6.44061 13.4718 5.93626C13.3676 5.43191 13.1105 4.96864 12.7329 4.60502C12.3552 4.2414 11.8742 3.99378 11.3504 3.89346C10.8267 3.79314 10.2838 3.84462 9.79042 4.04141C9.29706 4.2382 8.87537 4.57145 8.57869 4.99902C8.28201 5.42658 8.12366 5.92927 8.12366 6.4435C8.12366 6.70208 8.01699 6.95008 7.82711 7.13293C7.63723 7.31578 7.37969 7.4185 7.11116 7.4185C6.84263 7.4185 6.5851 7.31578 6.39522 7.13293C6.20534 6.95008 6.09866 6.70208 6.09866 6.4435C6.09866 5.23676 6.59647 4.07945 7.48258 3.22616C8.36869 2.37287 9.57051 1.8935 10.8237 1.8935H10.8223ZM3.06251 1.9C3.37276 1.9 3.67997 1.95884 3.9666 2.07317C4.25323 2.1875 4.51367 2.35508 4.73305 2.56633C4.95243 2.77758 5.12645 3.02838 5.24518 3.30439C5.3639 3.58041 5.42501 3.87624 5.42501 4.175C5.42501 4.47376 5.3639 4.76959 5.24518 5.0456C5.12645 5.32162 4.95243 5.57241 4.73305 5.78367C4.51367 5.99492 4.25323 6.1625 3.9666 6.27682C3.67997 6.39115 3.37276 6.45 3.06251 6.45C2.43594 6.45 1.83503 6.21031 1.39197 5.78367C0.948918 5.35702 0.700012 4.77837 0.700012 4.175C0.700012 3.57163 0.948918 2.99298 1.39197 2.56633C1.83503 2.13969 2.43594 1.9 3.06251 1.9ZM19.9375 0.599998C20.5641 0.599998 21.165 0.839685 21.6081 1.26633C22.0511 1.69298 22.3 2.27163 22.3 2.875C22.3 3.47837 22.0511 4.05702 21.6081 4.48367C21.165 4.91031 20.5641 5.15 19.9375 5.15C19.3109 5.15 18.71 4.91031 18.267 4.48367C17.8239 4.05702 17.575 3.47837 17.575 2.875C17.575 2.27163 17.8239 1.69298 18.267 1.26633C18.71 0.839685 19.3109 0.599998 19.9375 0.599998ZM3.06251 3.85C2.973 3.85 2.88716 3.88424 2.82386 3.94519C2.76057 4.00614 2.72501 4.0888 2.72501 4.175C2.72501 4.26119 2.76057 4.34386 2.82386 4.40481C2.88716 4.46576 2.973 4.5 3.06251 4.5C3.15202 4.5 3.23787 4.46576 3.30116 4.40481C3.36445 4.34386 3.40001 4.26119 3.40001 4.175C3.40001 4.0888 3.36445 4.00614 3.30116 3.94519C3.23787 3.88424 3.15202 3.85 3.06251 3.85ZM19.9375 2.55C19.848 2.55 19.7622 2.58424 19.6989 2.64519C19.6356 2.70614 19.6 2.7888 19.6 2.875C19.6 2.96119 19.6356 3.04386 19.6989 3.10481C19.7622 3.16576 19.848 3.2 19.9375 3.2C20.027 3.2 20.1129 3.16576 20.1762 3.10481C20.2395 3.04386 20.275 2.96119 20.275 2.875C20.275 2.7888 20.2395 2.70614 20.1762 2.64519C20.1129 2.58424 20.027 2.55 19.9375 2.55Z" fill="black"/>
</svg>
